<?xml version="1.0" encoding="UTF-8" standalone="no"?>
<!-- Created with Inkscape (http://www.inkscape.org/) -->

<svg
   xmlns:dc="http://purl.org/dc/elements/1.1/"
   xmlns:cc="http://creativecommons.org/ns#"
   xmlns:rdf="http://www.w3.org/1999/02/22-rdf-syntax-ns#"
   xmlns:svg="http://www.w3.org/2000/svg"
   xmlns="http://www.w3.org/2000/svg"
   xmlns:sodipodi="http://sodipodi.sourceforge.net/DTD/sodipodi-0.dtd"
   xmlns:inkscape="http://www.inkscape.org/namespaces/inkscape"
   width="53.634968mm"
   height="27.367838mm"
   viewBox="0 0 53.634968 27.367838"
   version="1.1"
   id="svg8"
   inkscape:version="0.92.3 (2405546, 2018-03-11)"
   sodipodi:docname="cloud.svg"
   inkscape:export-filename="/home/alexandredias/project/slr-vmc-2019/cloud.png"
   inkscape:export-xdpi="1420.916"
   inkscape:export-ydpi="1420.916">
  <defs
     id="defs2" />
  <sodipodi:namedview
     id="base"
     pagecolor="#ffffff"
     bordercolor="#666666"
     borderopacity="1.0"
     inkscape:pageopacity="0.0"
     inkscape:pageshadow="2"
     inkscape:zoom="3.959798"
     inkscape:cx="-44.746735"
     inkscape:cy="52.493872"
     inkscape:document-units="mm"
     inkscape:current-layer="layer1"
     showgrid="false"
     fit-margin-top="0"
     fit-margin-left="0"
     fit-margin-right="0"
     fit-margin-bottom="0"
     inkscape:snap-bbox="false"
     inkscape:bbox-paths="true"
     inkscape:snap-page="true"
     inkscape:window-width="1920"
     inkscape:window-height="1016"
     inkscape:window-x="0"
     inkscape:window-y="27"
     inkscape:window-maximized="1" />
  <metadata
     id="metadata5">
    <rdf:RDF>
      <cc:Work
         rdf:about="">
        <dc:format>image/svg+xml</dc:format>
        <dc:type
           rdf:resource="http://purl.org/dc/dcmitype/StillImage" />
        <dc:title />
      </cc:Work>
    </rdf:RDF>
  </metadata>
  <g
     inkscape:label="Layer 1"
     inkscape:groupmode="layer"
     id="layer1"
     transform="translate(-78.892341,-91.737036)">
    <rect
       style="opacity:1;vector-effect:none;fill:#ffffff;fill-opacity:1;stroke:none;stroke-width:1.32291663;stroke-linecap:round;stroke-linejoin:round;stroke-miterlimit:4;stroke-dasharray:none;stroke-dashoffset:0;stroke-opacity:1"
       id="rect855"
       width="53.634968"
       height="27.367838"
       x="78.892342"
       y="91.737038" />
    <path
       style="opacity:1;vector-effect:none;fill:#000000;fill-opacity:1;stroke:none;stroke-width:5;stroke-linecap:round;stroke-linejoin:round;stroke-miterlimit:4;stroke-dasharray:none;stroke-dashoffset:0;stroke-opacity:1"
       d="m 419.21289,346.72266 a 40.784901,40.784901 0 0 0 -39.54101,30.99609 27.652921,27.652921 0 0 0 -6.04102,-0.69141 27.652921,27.652921 0 0 0 -23.10547,12.49805 27.652921,27.652921 0 0 0 -8.58789,-1.38672 27.652921,27.652921 0 0 0 -26.48633,19.75195 21.339468,21.339468 0 0 0 -17.27539,20.92969 21.339468,21.339468 0 0 0 14.12891,20.05664 c 1.54338,0.65996 3.22408,1.05463 4.98633,1.16211 a 21.339468,21.339468 0 0 0 2.2246,0.1211 21.339468,21.339468 0 0 0 1.68555,-0.0742 h 148.0918 c 0.51937,0 1.03163,-0.0271 1.53711,-0.0781 a 32.0349,32.0349 0 0 0 30.06054,-31.96484 32.0349,32.0349 0 0 0 -32.03515,-32.03516 32.0349,32.0349 0 0 0 -8.86524,1.26758 40.784901,40.784901 0 0 0 -40.77734,-40.55273 z"
       transform="scale(0.26458333)"
       id="path32"
       inkscape:connector-curvature="0" />
  </g>
</svg>
